<svg fill="none" height="24" viewBox="0 0 24 24" width="24" xmlns="http://www.w3.org/2000/svg"><g fill="#323232"><path clip-rule="evenodd" d="m5 2c-1.65685 0-3 1.34315-3 3v14c0 1.6569 1.34315 3 3 3h12c1.6569 0 3-1.3431 3-3v-14c0-1.65685-1.3431-3-3-3zm6 6c-2.20914 0-4 1.79086-4 4 0 2.2091 1.79086 4 4 4 2.2091 0 4-1.7909 4-4 0-2.20914-1.7909-4-4-4zm-2.65365 11.6816c.38622-.4145 1.07773-.6816 2.65365-.6816 1.6151 0 2.2999.2611 2.6792.6753.373.4073 1.0055.4352 1.4129.0622.4073-.3729.4352-1.0055.0622-1.4128-.9933-1.0849-2.4622-1.3247-4.1543-1.3247-1.6812 0-3.12803.2568-4.11701 1.3184-.37647.4041-.35406 1.0368.05003 1.4133.4041.3764 1.03687.354 1.41333-.0501z" fill-rule="evenodd"/><path d="m9 12c0-1.1046.89543-2 2-2 1.1046 0 2 .8954 2 2s-.8954 2-2 2c-1.10457 0-2-.8954-2-2z"/><path d="m19.6458 22h.3542c1.6568 0 3-1.3431 3-3v-14c0-1.65685-1.3432-3-3-3h-.3542c.8304.73294 1.3542 1.80531 1.3542 3v14c0 1.1947-.5238 2.2671-1.3542 3z"/></g></svg>