<svg xmlns="http://www.w3.org/2000/svg" viewBox="0 0 48 48" id="sunrise"><path d="M24 10a1 1 0 0 0 1-1V3a1 1 0 0 0-2 0V9A1 1 0 0 0 24 10zM12.6865 14.1006a1 1 0 1 0 1.4141-1.4141L9.8579 8.4438A1 1 0 0 0 8.4438 9.8579zM10 24a1 1 0 0 0-1-1H3a1 1 0 0 0 0 2H9A1 1 0 0 0 10 24zM45 23H39a1 1 0 0 0 0 2h6a1 1 0 0 0 0-2zM34.6064 14.3936a.9969.9969 0 0 0 .7071-.293l4.2427-4.2427a1 1 0 0 0-1.4141-1.4141l-4.2427 4.2427a1 1 0 0 0 .707 1.7071zM17.7188 11.4487a1 1 0 1 0 1.8476-.7656L18.418 7.9111a1 1 0 0 0-1.8477.7657zM7.9111 18.418l2.772 1.1484a1 1 0 0 0 .7656-1.8476L8.6768 16.57a1 1 0 1 0-.7657 1.8477zM39.3232 16.57l-2.7719 1.1485a1 1 0 1 0 .7656 1.8476l2.772-1.1484a1 1 0 0 0-.7657-1.8477zM28.9746 11.99a.9984.9984 0 0 0 1.3067-.541L31.43 8.6768a1 1 0 1 0-1.8477-.7657l-1.1484 2.772A1 1 0 0 0 28.9746 11.99z"></path><path d="M41 28a5.329 5.329 0 0 0-3.417 1.1841A3.3368 3.3368 0 0 1 35.33 30a3.0384 3.0384 0 0 1-1.8095-.506A10.8873 10.8873 0 0 0 35 24a11 11 0 0 0-22 0 10.8868 10.8868 0 0 0 1.4764 5.4886A3.1 3.1 0 0 1 12.66 30a3.3331 3.3331 0 0 1-2.253-.8169A5.3094 5.3094 0 0 0 7 28a1 1 0 0 0 0 2 3.3328 3.3328 0 0 1 2.2529.8169A5.309 5.309 0 0 0 12.66 32a5.3565 5.3565 0 0 0 3.4174-1.18l.3291-.2265A3.007 3.007 0 0 1 18.33 30a3.333 3.333 0 0 1 2.2529.8169 5.4977 5.4977 0 0 0 6.8125.0015A3.3521 3.3521 0 0 1 29.66 30a3.8235 3.8235 0 0 1 .6874.06 3.0969 3.0969 0 0 1 1.2512.5379l.3016.2108a5.5156 5.5156 0 0 0 6.8354.01A3.3519 3.3519 0 0 1 41 30a1 1 0 0 0 0-2zm-9.1714.4341c-.091-.0412-.1911-.0765-.289-.1133-.0361-.0135-.0691-.0287-.1061-.0416a4.8536 4.8536 0 0 0-.7056-.1812c-.057-.0105-.1167-.0188-.176-.0276A5.9061 5.9061 0 0 0 29.66 28a5.3292 5.3292 0 0 0-3.4175 1.1841 3.5161 3.5161 0 0 1-4.5054-.001A5.3094 5.3094 0 0 0 18.33 28a5.8422 5.8422 0 0 0-.9094.074c-.057.0088-.1147.0165-.1695.0268a4.8373 4.8373 0 0 0-.7075.1851c-.0452.0158-.0854.0336-.129.05-.0821.0316-.1681.061-.2448.0954A8.9057 8.9057 0 0 1 15 24a9 9 0 0 1 18 0A8.898 8.898 0 0 1 31.8286 28.4341zM41 35a5.3209 5.3209 0 0 0-3.4116 1.1826 3.5311 3.5311 0 0 1-4.5186 0 5.5093 5.5093 0 0 0-6.8218.0005 3.5218 3.5218 0 0 1-4.5107 0 5.5028 5.5028 0 0 0-6.8179 0A3.34 3.34 0 0 1 12.6636 37a3.335 3.335 0 0 1-2.2544-.8169A5.3158 5.3158 0 0 0 7 35a1 1 0 0 0 0 2 3.3388 3.3388 0 0 1 2.2554.8169A5.3109 5.3109 0 0 0 12.6636 39a5.3129 5.3129 0 0 0 3.4092-1.1831 3.5211 3.5211 0 0 1 4.51 0 5.5035 5.5035 0 0 0 6.8184 0 3.5284 3.5284 0 0 1 4.5161.0005 5.5122 5.5122 0 0 0 6.8232 0A3.3453 3.3453 0 0 1 41 37a1 1 0 0 0 0-2zM41 42a5.3209 5.3209 0 0 0-3.4116 1.1826 3.5311 3.5311 0 0 1-4.5186 0 5.5093 5.5093 0 0 0-6.8218.0005 3.5218 3.5218 0 0 1-4.5107 0 5.5028 5.5028 0 0 0-6.8179 0A3.34 3.34 0 0 1 12.6636 44a3.335 3.335 0 0 1-2.2544-.8169A5.3158 5.3158 0 0 0 7 42a1 1 0 0 0 0 2 3.3388 3.3388 0 0 1 2.2554.8169A5.3109 5.3109 0 0 0 12.6636 46a5.3129 5.3129 0 0 0 3.4092-1.1831 3.5211 3.5211 0 0 1 4.51 0 5.5035 5.5035 0 0 0 6.8184 0 3.5284 3.5284 0 0 1 4.5161.0005 5.5122 5.5122 0 0 0 6.8232 0A3.3453 3.3453 0 0 1 41 44a1 1 0 0 0 0-2z"></path></svg>